<svg width="22" height="24" viewBox="0 0 22 24" fill="none" xmlns="http://www.w3.org/2000/svg">
<g clip-path="url(#clip0)">
<path d="M5.83343 9.44411C5.64046 9.28875 5.44698 9.21107 5.25401 9.21107H4.38662V14.8077H5.25451C5.44748 14.8077 5.64095 14.73 5.83393 14.5746C6.0269 14.4193 6.12339 14.1863 6.12339 13.875V10.1438C6.12289 9.83304 6.02591 9.59946 5.83343 9.44411ZM19.9573 0H2.04258C0.838983 0 -0.137824 1.04946 -0.140808 2.34643V21.6536C-0.137824 22.9505 0.838983 24 2.04258 24H19.9573C21.1614 24 22.1377 22.9505 22.1407 21.6536V2.34643C22.1377 1.04946 21.1609 0 19.9573 0ZM7.52842 13.8852C7.52842 14.8929 6.95099 16.4196 5.12321 16.4164H2.81547V7.5525H5.17195C6.93457 7.5525 7.52742 9.07714 7.52792 10.0854L7.52842 13.8852ZM12.5358 9.13554H9.88588V11.1938H11.5058V12.7779H9.88588V14.8355H12.5363V16.4196H9.44374C8.88869 16.4352 8.42714 15.9627 8.41321 15.3648V8.6625C8.39979 8.06518 8.83895 7.56911 9.3935 7.55411H12.5363L12.5358 9.13554ZM17.6904 15.3118C17.0339 16.9591 15.8576 16.6313 15.3309 15.3118L13.4146 7.55464H15.0345L16.5122 13.6468L17.9828 7.55464H19.6032L17.6904 15.3118Z" fill="black"/>
<path fill-rule="evenodd" clip-rule="evenodd" d="M7.52843 13.8852C7.52843 14.8928 6.951 16.4196 5.12322 16.4164H2.81549V7.55249H5.17196C6.93459 7.55249 7.52744 9.07713 7.52794 10.0853L7.52843 13.8852ZM5.25403 9.21106C5.447 9.21106 5.64047 9.28874 5.83345 9.4441C6.02592 9.59945 6.12291 9.83303 6.1234 10.1437V13.875C6.1234 14.1862 6.02692 14.4193 5.83394 14.5746C5.64097 14.73 5.4475 14.8077 5.25452 14.8077H4.38664V9.21106H5.25403Z" fill="white"/>
<path d="M12.5358 9.13553H9.8859V11.1937H11.5058V12.7778H9.8859V14.8355H12.5363V16.4196H9.44375C8.8887 16.4352 8.42716 15.9627 8.41323 15.3648V8.66249C8.3998 8.06517 8.83897 7.5691 9.39352 7.5541H12.5363L12.5358 9.13553Z" fill="white"/>
<path d="M17.6904 15.3118C17.0339 16.9591 15.8577 16.6312 15.331 15.3118L13.4146 7.55463H15.0345L16.5122 13.6468L17.9829 7.55463H19.6032L17.6904 15.3118Z" fill="white"/>
</g>
<defs>
<clipPath id="clip0">
<rect width="22" height="24" fill="white"/>
</clipPath>
</defs>
</svg>
